{"title":"LA NONA (2).AVI","uid":4478510,"size":1166773042,"categoryP":"video","categoryS":"movies","magnet":"?xt=urn:btih:325cf2be38cdc6f78543ef20a6743a5724fcc9f5&amp;dn=LA+NONA+%282%29.AVI&amp;tr=udp%3A%2F%2Ftracker.openbittorrent.com%3A80&amp;tr=udp%3A%2F%2Fopen.demonii.com%3A1337&amp;tr=udp%3A%2F%2Ftracker.coppersurfer.tk%3A6969&amp;tr=udp%3A%2F%2Fexodus.desync.com%3A6969","seeders":1,"leechers":0,"uploader":"siss400","files":1,"time":1225413472,"description":"DVDrip from CINEMADISK\n\nBlack Comedy , year of release 1979, director Hector Oliveira, country:ARGENTINA\n\n\nGeneral\nComplete name                    : E:FILES - DLLA NONA (2).AVI\nFormat                           : AVI\nFormat/Info                      : Audio Video Interleave\nFormat profile                   : OpenDML\nFile size                        : 1.09 GiB\nDuration                         : 1h 16mn\nOverall bit rate                 : 2 036 Kbps\nDirector                         : created.with.SUPER(C).v2008.bld.33\nWriting application              : SUPER(C) - by eRightSoft\n\nVideo\nFormat                           : MPEG-4 Visual\nFormat profile                   : Simple@L1\nFormat settings, BVOP            : No\nFormat settings, QPel            : No\nFormat settings, GMC             : No warppoints\nFormat settings, Matrix          : Default\nCodec ID                         : XVID\nCodec ID/Hint                    : XviD\nDuration                         : 1h 10mn\nBit rate                         : 1 999 Kbps\nWidth                            : 640 pixels\nHeight                           : 480 pixels\nDisplay aspect ratio             : 4/3\nFrame rate                       : 25.000 fps\nResolution                       : 24 bits\nColorimetry                      : 4:2:0\nScan type                        : Progressive\nBits/(Pixel*Frame)               : 0.260\nStream size                      : 1 004 MiB (90%)\nWriting library                  : SUPER(C)   \n\nAudio\nFormat                           : MPEG Audio\nFormat version                   : Version 1\nFormat profile                   : Layer 3\nCodec ID                         : 55\nCodec ID/Hint                    : MP3\nDuration                         : 1h 16mn\nBit rate mode                    : Constant\nBit rate                         : 192 Kbps\nMinimum bit rate                 : 192 Kbps\nChannel(s)                       : 2 channels\nSampling rate                    : 48.0 KHz\nResolution                       : 16 bits\nStream size                      : 105 MiB (9%)\nAlignment                        : Aligned on interleaves\nInterleave, duration             : 480 ms (12.00 video frames)\nInterleave, preload duration     : 960 ms\nWriting library                  : LAME3.97 \nEncoding settings                : CBR\n\nLanguage: Spanish","torrent":{"xt":"urn:btih:325cf2be38cdc6f78543ef20a6743a5724fcc9f5","amp;dn":"LA+NONA+%282%29.AVI","amp;tr":["udp%3A%2F%2Ftracker.openbittorrent.com%3A80","udp%3A%2F%2Fopen.demonii.com%3A1337","udp%3A%2F%2Ftracker.coppersurfer.tk%3A6969","udp%3A%2F%2Fexodus.desync.com%3A6969"],"infoHash":"325cf2be38cdc6f78543ef20a6743a5724fcc9f5","infoHashBuffer":{"type":"Buffer","data":[50,92,242,190,56,205,198,247,133,67,239,32,166,116,58,87,36,252,201,245]},"announce":[],"urlList":[]}}